<svg width="32" height="32" viewBox="0 0 32 32" fill="none" xmlns="http://www.w3.org/2000/svg">
<g clip-path="url(#clip0)">
<path d="M15.9996 30.7679C24.1556 30.7679 30.7673 24.1562 30.7673 16.0002C30.7673 7.84425 24.1556 1.23254 15.9996 1.23254C7.84364 1.23254 1.23193 7.84425 1.23193 16.0002C1.23193 24.1562 7.84364 30.7679 15.9996 30.7679Z" fill="#FE6969"/>
<path d="M16 31.9995C11.9007 31.9995 7.80144 30.4397 4.68051 27.3199C-1.56017 21.0792 -1.56017 10.9228 4.68051 4.6809C10.9212 -1.55854 21.0788 -1.55979 27.3195 4.6809C33.5602 10.9228 33.5602 21.078 27.3195 27.3199C24.1985 30.4397 20.098 31.9995 16 31.9995ZM6.43379 6.43418C1.16032 11.7089 1.16032 20.2919 6.43379 25.5666C11.7098 30.8401 20.2927 30.8413 25.5662 25.5666C30.8398 20.2919 30.8397 11.7089 25.5662 6.43418C20.2902 1.16071 11.7085 1.16071 6.43379 6.43418Z" fill="#FE6969"/>
<path d="M11.6953 21.5428C11.3779 21.5428 11.0605 21.4213 10.8187 21.1795C10.3339 20.6947 10.3339 19.911 10.8187 19.4262L19.5851 10.6598C20.0699 10.1749 20.8536 10.1749 21.3384 10.6598C21.8232 11.1446 21.8232 11.9282 21.3384 12.413L12.572 21.1795C12.3289 21.4213 12.0127 21.5428 11.6953 21.5428Z" fill="white"/>
<path d="M20.46 21.5428C20.1426 21.5428 19.8252 21.4213 19.5834 21.1795L10.817 12.413C10.3322 11.9282 10.3322 11.1446 10.817 10.6598C11.3018 10.1749 12.0854 10.1749 12.5703 10.6598L21.3367 19.4262C21.8215 19.911 21.8215 20.6947 21.3367 21.1795C21.0949 21.4213 20.7775 21.5428 20.46 21.5428Z" fill="white"/>
</g>
<defs>
<clipPath id="clip0">
<rect width="32" height="32" fill="white"/>
</clipPath>
</defs>
</svg>
