<svg width="225" height="29" viewBox="0 0 225 29" fill="none" xmlns="http://www.w3.org/2000/svg">
<path d="M1.02 20.51C0.84 20.27 0.75 19.97 0.75 19.61C0.75 19.09 1.01 18.65 1.53 18.29C1.81 18.11 2.1 18.02 2.4 18.02C2.82 18.02 3.22 18.21 3.6 18.59C4.2 19.21 4.82 19.67 5.46 19.97C6.12 20.27 6.91 20.42 7.83 20.42C9.39 20.36 10.17 19.77 10.17 18.65C10.17 18.07 9.9 17.63 9.36 17.33C8.84 17.03 8.02 16.73 6.9 16.43C5.74 16.11 4.79 15.79 4.05 15.47C3.33 15.15 2.7 14.67 2.16 14.03C1.64 13.37 1.38 12.49 1.38 11.39C1.38 10.43 1.65 9.6 2.19 8.9C2.75 8.18 3.47 7.63 4.35 7.25C5.25 6.85 6.2 6.65 7.2 6.65C8.22 6.65 9.24 6.84 10.26 7.22C11.28 7.6 12.08 8.16 12.66 8.9C12.92 9.22 13.05 9.58 13.05 9.98C13.05 10.44 12.86 10.82 12.48 11.12C12.2 11.34 11.88 11.45 11.52 11.45C11.08 11.45 10.72 11.31 10.44 11.03C10.08 10.59 9.61 10.24 9.03 9.98C8.47 9.72 7.83 9.59 7.11 9.59C5.59 9.59 4.83 10.14 4.83 11.24C4.83 11.68 4.97 12.04 5.25 12.32C5.53 12.58 5.88 12.79 6.3 12.95C6.74 13.09 7.35 13.27 8.13 13.49C9.21 13.79 10.11 14.1 10.83 14.42C11.55 14.74 12.16 15.23 12.66 15.89C13.16 16.55 13.41 17.42 13.41 18.5C13.41 19.48 13.12 20.34 12.54 21.08C11.96 21.8 11.21 22.35 10.29 22.73C9.39 23.11 8.46 23.3 7.5 23.3C6.18 23.3 4.95 23.08 3.81 22.64C2.67 22.2 1.74 21.49 1.02 20.51ZM23.4127 6.65C25.1127 6.65 26.4827 6.92 27.5227 7.46C28.5627 7.98 29.0827 8.68 29.0827 9.56C29.0827 10 28.9527 10.39 28.6927 10.73C28.4327 11.05 28.0927 11.21 27.6727 11.21C27.3527 11.21 27.0927 11.17 26.8927 11.09C26.6927 10.99 26.4927 10.87 26.2927 10.73C26.1127 10.57 25.9327 10.44 25.7527 10.34C25.5527 10.24 25.2527 10.15 24.8527 10.07C24.4727 9.99 24.1627 9.95 23.9227 9.95C22.4227 9.95 21.2427 10.42 20.3827 11.36C19.5427 12.28 19.1227 13.49 19.1227 14.99C19.1227 16.43 19.5527 17.63 20.4127 18.59C21.2727 19.53 22.3727 20 23.7127 20C24.6927 20 25.4227 19.88 25.9027 19.64C26.0227 19.58 26.1827 19.48 26.3827 19.34C26.6027 19.18 26.8027 19.06 26.9827 18.98C27.1627 18.9 27.3827 18.86 27.6427 18.86C28.1427 18.86 28.5327 19.02 28.8127 19.34C29.1127 19.66 29.2627 20.07 29.2627 20.57C29.2627 21.05 28.9827 21.5 28.4227 21.92C27.8627 22.34 27.1227 22.68 26.2027 22.94C25.2827 23.18 24.3027 23.3 23.2627 23.3C21.7227 23.3 20.3627 22.94 19.1827 22.22C18.0227 21.5 17.1227 20.51 16.4827 19.25C15.8427 17.97 15.5227 16.55 15.5227 14.99C15.5227 13.37 15.8527 11.93 16.5127 10.67C17.1927 9.41 18.1327 8.43 19.3327 7.73C20.5327 7.01 21.8927 6.65 23.4127 6.65ZM40.2921 6.65C42.2721 6.65 43.6421 7.26 44.4021 8.48C45.1621 9.68 45.5421 11.35 45.5421 13.49V21.17C45.5421 21.69 45.3721 22.13 45.0321 22.49C44.6921 22.83 44.2621 23 43.7421 23C43.2221 23 42.7921 22.83 42.4521 22.49C42.1121 22.13 41.9421 21.69 41.9421 21.17V13.49C41.9421 12.39 41.7221 11.53 41.2821 10.91C40.8621 10.27 40.1121 9.95 39.0321 9.95C37.9121 9.95 37.0321 10.29 36.3921 10.97C35.7721 11.63 35.4621 12.47 35.4621 13.49V21.17C35.4621 21.69 35.2921 22.13 34.9521 22.49C34.6121 22.83 34.1821 23 33.6621 23C33.1421 23 32.7121 22.83 32.3721 22.49C32.0321 22.13 31.8621 21.69 31.8621 21.17V2.63C31.8621 2.11 32.0321 1.68 32.3721 1.34C32.7121 0.979999 33.1421 0.8 33.6621 0.8C34.1821 0.8 34.6121 0.979999 34.9521 1.34C35.2921 1.68 35.4621 2.11 35.4621 2.63V9.26C36.0021 8.54 36.6821 7.93 37.5021 7.43C38.3421 6.91 39.2721 6.65 40.2921 6.65ZM64.8602 14.99C64.8602 16.59 64.5002 18.03 63.7802 19.31C63.0602 20.57 62.0702 21.55 60.8102 22.25C59.5702 22.95 58.2002 23.3 56.7002 23.3C55.1802 23.3 53.8002 22.95 52.5602 22.25C51.3202 21.55 50.3402 20.57 49.6202 19.31C48.9002 18.03 48.5402 16.59 48.5402 14.99C48.5402 13.39 48.9002 11.96 49.6202 10.7C50.3402 9.42 51.3202 8.43 52.5602 7.73C53.8002 7.01 55.1802 6.65 56.7002 6.65C58.2002 6.65 59.5702 7.01 60.8102 7.73C62.0702 8.43 63.0602 9.42 63.7802 10.7C64.5002 11.96 64.8602 13.39 64.8602 14.99ZM61.2602 14.99C61.2602 14.01 61.0502 13.14 60.6302 12.38C60.2302 11.6 59.6802 11 58.9802 10.58C58.3002 10.16 57.5402 9.95 56.7002 9.95C55.8602 9.95 55.0902 10.16 54.3902 10.58C53.7102 11 53.1602 11.6 52.7402 12.38C52.3402 13.14 52.1402 14.01 52.1402 14.99C52.1402 15.97 52.3402 16.84 52.7402 17.6C53.1602 18.36 53.7102 18.95 54.3902 19.37C55.0902 19.79 55.8602 20 56.7002 20C57.5402 20 58.3002 19.79 58.9802 19.37C59.6802 18.95 60.2302 18.36 60.6302 17.6C61.0502 16.84 61.2602 15.97 61.2602 14.99ZM71.768 21.17C71.768 21.69 71.588 22.13 71.228 22.49C70.888 22.83 70.458 23 69.938 23C69.438 23 69.018 22.83 68.678 22.49C68.338 22.13 68.168 21.69 68.168 21.17V2.63C68.168 2.11 68.338 1.68 68.678 1.34C69.038 0.979999 69.478 0.8 69.998 0.8C70.498 0.8 70.918 0.979999 71.258 1.34C71.598 1.68 71.768 2.11 71.768 2.63V21.17ZM88.9439 6.65C89.4639 6.65 89.8939 6.82 90.2339 7.16C90.5739 7.5 90.7439 7.94 90.7439 8.48V21.17C90.7439 21.69 90.5739 22.13 90.2339 22.49C89.8939 22.83 89.4639 23 88.9439 23C88.4239 23 87.9939 22.83 87.6539 22.49C87.3339 22.15 87.1639 21.72 87.1439 21.2C86.6439 21.78 85.9639 22.28 85.1039 22.7C84.2639 23.1 83.3739 23.3 82.4339 23.3C81.0539 23.3 79.8039 22.95 78.6839 22.25C77.5639 21.53 76.6739 20.54 76.0139 19.28C75.3739 18.02 75.0539 16.59 75.0539 14.99C75.0539 13.39 75.3739 11.96 76.0139 10.7C76.6539 9.42 77.5239 8.43 78.6239 7.73C79.7439 7.01 80.9739 6.65 82.3139 6.65C83.2739 6.65 84.1739 6.83 85.0139 7.19C85.8539 7.53 86.5639 7.97 87.1439 8.51V8.48C87.1439 7.96 87.3139 7.53 87.6539 7.19C87.9939 6.83 88.4239 6.65 88.9439 6.65ZM82.8839 20C84.1839 20 85.2439 19.53 86.0639 18.59C86.8839 17.63 87.2939 16.43 87.2939 14.99C87.2939 13.55 86.8839 12.35 86.0639 11.39C85.2439 10.43 84.1839 9.95 82.8839 9.95C81.6039 9.95 80.5539 10.43 79.7339 11.39C78.9139 12.35 78.5039 13.55 78.5039 14.99C78.5039 16.43 78.9039 17.63 79.7039 18.59C80.5239 19.53 81.5839 20 82.8839 20ZM102.985 6.65C103.585 6.65 104.085 6.82 104.485 7.16C104.905 7.5 105.115 7.9 105.115 8.36C105.115 8.98 104.955 9.45 104.635 9.77C104.315 10.07 103.935 10.22 103.495 10.22C103.195 10.22 102.855 10.15 102.475 10.01C102.415 9.99 102.275 9.95 102.055 9.89C101.855 9.83 101.635 9.8 101.395 9.8C100.875 9.8 100.375 9.96 99.8953 10.28C99.4153 10.6 99.0153 11.09 98.6953 11.75C98.3953 12.39 98.2453 13.16 98.2453 14.06V21.17C98.2453 21.69 98.0753 22.13 97.7353 22.49C97.3953 22.83 96.9653 23 96.4453 23C95.9253 23 95.4953 22.83 95.1553 22.49C94.8153 22.13 94.6453 21.69 94.6453 21.17V8.78C94.6453 8.26 94.8153 7.83 95.1553 7.49C95.4953 7.13 95.9253 6.95 96.4453 6.95C96.9653 6.95 97.3953 7.13 97.7353 7.49C98.0753 7.83 98.2453 8.26 98.2453 8.78V9.17C98.7053 8.35 99.3653 7.73 100.225 7.31C101.085 6.87 102.005 6.65 102.985 6.65ZM111.553 21.17C111.553 21.69 111.373 22.13 111.013 22.49C110.673 22.83 110.243 23 109.723 23C109.223 23 108.803 22.83 108.463 22.49C108.123 22.13 107.953 21.69 107.953 21.17V2.63C107.953 2.11 108.123 1.68 108.463 1.34C108.823 0.979999 109.263 0.8 109.783 0.8C110.283 0.8 110.703 0.979999 111.043 1.34C111.383 1.68 111.553 2.11 111.553 2.63V21.17ZM127.21 6.95C127.73 6.95 128.16 7.13 128.5 7.49C128.84 7.83 129.01 8.26 129.01 8.78V21.53C129.01 24.13 128.31 26.02 126.91 27.2C125.51 28.4 123.64 29 121.3 29C120.62 29 119.92 28.94 119.2 28.82C118.5 28.72 117.93 28.58 117.49 28.4C116.51 27.98 116.02 27.4 116.02 26.66C116.02 26.52 116.05 26.36 116.11 26.18C116.23 25.74 116.43 25.4 116.71 25.16C117.01 24.94 117.33 24.83 117.67 24.83C117.87 24.83 118.06 24.86 118.24 24.92C118.38 24.98 118.62 25.08 118.96 25.22C119.32 25.36 119.69 25.47 120.07 25.55C120.47 25.65 120.88 25.7 121.3 25.7C122.72 25.7 123.76 25.39 124.42 24.77C125.1 24.17 125.44 23.13 125.44 21.65V21.35C124.4 22.65 122.78 23.3 120.58 23.3C119.54 23.3 118.62 23.06 117.82 22.58C117.02 22.08 116.4 21.4 115.96 20.54C115.52 19.66 115.3 18.66 115.3 17.54V8.78C115.3 8.26 115.47 7.83 115.81 7.49C116.15 7.13 116.58 6.95 117.1 6.95C117.62 6.95 118.05 7.13 118.39 7.49C118.73 7.83 118.9 8.26 118.9 8.78V16.46C118.9 17.72 119.17 18.63 119.71 19.19C120.27 19.73 121.08 20 122.14 20C123.18 20 123.98 19.7 124.54 19.1C125.12 18.48 125.41 17.6 125.41 16.46V8.78C125.41 8.26 125.58 7.83 125.92 7.49C126.26 7.13 126.69 6.95 127.21 6.95ZM159.795 6.95C160.275 6.95 160.675 7.13 160.995 7.49C161.335 7.83 161.505 8.27 161.505 8.81C161.505 8.99 161.465 9.22 161.385 9.5L156.795 21.86C156.675 22.22 156.455 22.51 156.135 22.73C155.835 22.93 155.505 23.03 155.145 23.03L154.905 23C154.225 22.96 153.715 22.58 153.375 21.86L150.825 14.48L148.395 21.86C148.055 22.58 147.545 22.96 146.865 23L146.625 23.03C146.265 23.03 145.925 22.93 145.605 22.73C145.305 22.51 145.095 22.22 144.975 21.86L140.385 9.5C140.305 9.28 140.265 9.05 140.265 8.81C140.265 8.31 140.425 7.88 140.745 7.52C141.085 7.14 141.525 6.95 142.065 6.95C142.465 6.95 142.805 7.05 143.085 7.25C143.385 7.43 143.595 7.71 143.715 8.09L146.955 16.88L149.325 10.46C149.645 9.72 150.195 9.35 150.975 9.35C151.395 9.35 151.715 9.44 151.935 9.62C152.175 9.8 152.375 10.08 152.535 10.46L154.845 16.73L158.055 8.09C158.175 7.71 158.385 7.43 158.685 7.25C158.985 7.05 159.355 6.95 159.795 6.95ZM172.683 6.65C173.283 6.65 173.783 6.82 174.183 7.16C174.603 7.5 174.813 7.9 174.813 8.36C174.813 8.98 174.653 9.45 174.333 9.77C174.013 10.07 173.633 10.22 173.193 10.22C172.893 10.22 172.553 10.15 172.173 10.01C172.113 9.99 171.973 9.95 171.753 9.89C171.553 9.83 171.333 9.8 171.093 9.8C170.573 9.8 170.073 9.96 169.593 10.28C169.113 10.6 168.713 11.09 168.393 11.75C168.093 12.39 167.943 13.16 167.943 14.06V21.17C167.943 21.69 167.773 22.13 167.433 22.49C167.093 22.83 166.663 23 166.143 23C165.623 23 165.193 22.83 164.853 22.49C164.513 22.13 164.343 21.69 164.343 21.17V8.78C164.343 8.26 164.513 7.83 164.853 7.49C165.193 7.13 165.623 6.95 166.143 6.95C166.663 6.95 167.093 7.13 167.433 7.49C167.773 7.83 167.943 8.26 167.943 8.78V9.17C168.403 8.35 169.063 7.73 169.923 7.31C170.783 6.87 171.703 6.65 172.683 6.65ZM180.74 21.17C180.74 21.69 180.57 22.13 180.23 22.49C179.89 22.83 179.46 23 178.94 23C178.42 23 177.99 22.83 177.65 22.49C177.31 22.13 177.14 21.69 177.14 21.17V8.78C177.14 8.26 177.31 7.83 177.65 7.49C177.99 7.13 178.42 6.95 178.94 6.95C179.46 6.95 179.89 7.13 180.23 7.49C180.57 7.83 180.74 8.26 180.74 8.78V21.17ZM178.91 5C178.23 5 177.75 4.89 177.47 4.67C177.19 4.45 177.05 4.06 177.05 3.5V2.93C177.05 2.37 177.2 1.98 177.5 1.76C177.8 1.54 178.28 1.43 178.94 1.43C179.64 1.43 180.13 1.54 180.41 1.76C180.69 1.98 180.83 2.37 180.83 2.93V3.5C180.83 4.08 180.68 4.48 180.38 4.7C180.1 4.9 179.61 5 178.91 5ZM192.18 19.61C192.46 19.61 192.71 19.75 192.93 20.03C193.17 20.29 193.29 20.64 193.29 21.08C193.29 21.62 192.99 22.08 192.39 22.46C191.81 22.82 191.15 23 190.41 23C189.17 23 188.12 22.74 187.26 22.22C186.42 21.68 186 20.55 186 18.83V10.55H184.62C184.14 10.55 183.74 10.39 183.42 10.07C183.1 9.75 182.94 9.35 182.94 8.87C182.94 8.41 183.1 8.03 183.42 7.73C183.74 7.41 184.14 7.25 184.62 7.25H186V5.33C186 4.81 186.17 4.38 186.51 4.04C186.87 3.68 187.31 3.5 187.83 3.5C188.33 3.5 188.75 3.68 189.09 4.04C189.43 4.38 189.6 4.81 189.6 5.33V7.25H191.73C192.21 7.25 192.61 7.41 192.93 7.73C193.25 8.05 193.41 8.45 193.41 8.93C193.41 9.39 193.25 9.78 192.93 10.1C192.61 10.4 192.21 10.55 191.73 10.55H189.6V18.68C189.6 19.1 189.71 19.41 189.93 19.61C190.15 19.79 190.45 19.88 190.83 19.88C190.99 19.88 191.21 19.84 191.49 19.76C191.73 19.66 191.96 19.61 192.18 19.61ZM210.969 14.6C210.949 15.08 210.759 15.47 210.399 15.77C210.039 16.07 209.619 16.22 209.139 16.22H199.239C199.479 17.4 200.029 18.33 200.889 19.01C201.749 19.67 202.719 20 203.799 20C204.619 20 205.259 19.93 205.719 19.79C206.179 19.63 206.539 19.47 206.799 19.31C207.079 19.13 207.269 19.01 207.369 18.95C207.729 18.77 208.069 18.68 208.389 18.68C208.809 18.68 209.169 18.83 209.469 19.13C209.769 19.43 209.919 19.78 209.919 20.18C209.919 20.72 209.639 21.21 209.079 21.65C208.519 22.11 207.769 22.5 206.829 22.82C205.889 23.14 204.939 23.3 203.979 23.3C202.299 23.3 200.829 22.95 199.569 22.25C198.329 21.55 197.369 20.59 196.689 19.37C196.009 18.13 195.669 16.74 195.669 15.2C195.669 13.48 196.029 11.97 196.749 10.67C197.469 9.37 198.419 8.38 199.599 7.7C200.779 7 202.039 6.65 203.379 6.65C204.699 6.65 205.939 7.01 207.099 7.73C208.279 8.45 209.219 9.42 209.919 10.64C210.619 11.86 210.969 13.18 210.969 14.6ZM203.379 9.95C201.059 9.95 199.689 11.04 199.269 13.22H207.129V13.01C207.049 12.17 206.639 11.45 205.899 10.85C205.159 10.25 204.319 9.95 203.379 9.95ZM222.311 6.65C222.911 6.65 223.411 6.82 223.811 7.16C224.231 7.5 224.441 7.9 224.441 8.36C224.441 8.98 224.281 9.45 223.961 9.77C223.641 10.07 223.261 10.22 222.821 10.22C222.521 10.22 222.181 10.15 221.801 10.01C221.741 9.99 221.601 9.95 221.381 9.89C221.181 9.83 220.961 9.8 220.721 9.8C220.201 9.8 219.701 9.96 219.221 10.28C218.741 10.6 218.341 11.09 218.021 11.75C217.721 12.39 217.571 13.16 217.571 14.06V21.17C217.571 21.69 217.401 22.13 217.061 22.49C216.721 22.83 216.291 23 215.771 23C215.251 23 214.821 22.83 214.481 22.49C214.141 22.13 213.971 21.69 213.971 21.17V8.78C213.971 8.26 214.141 7.83 214.481 7.49C214.821 7.13 215.251 6.95 215.771 6.95C216.291 6.95 216.721 7.13 217.061 7.49C217.401 7.83 217.571 8.26 217.571 8.78V9.17C218.031 8.35 218.691 7.73 219.551 7.31C220.411 6.87 221.331 6.65 222.311 6.65Z" fill="white"/>
</svg>
