<svg width="145" height="36" viewBox="0 0 145 36" fill="none" xmlns="http://www.w3.org/2000/svg">
<path d="M41.01 1.05514C41.7826 1.05514 42.4907 1.36095 43.1346 1.97257C43.8106 2.552 44.1486 3.29238 44.1486 4.19371C44.1486 4.48343 44.1003 4.80533 44.0037 5.15943L34.4914 33.1651C34.2983 33.7124 33.9603 34.147 33.4774 34.4689C32.9946 34.7908 32.4634 34.9678 31.884 35C31.3046 35 30.7573 34.839 30.2423 34.5171C29.7272 34.1952 29.3248 33.7285 29.0351 33.1169L22.1786 17.5206L15.2737 33.1169C14.984 33.7285 14.5816 34.1952 14.0666 34.5171C13.5515 34.839 13.0043 35 12.4248 35C11.8454 34.9678 11.3143 34.7908 10.8314 34.4689C10.3486 34.147 10.0106 33.7124 9.81741 33.1651L0.305124 5.15943C0.208552 4.80533 0.160267 4.48343 0.160267 4.19371C0.160267 3.29238 0.482172 2.552 1.12598 1.97257C1.80198 1.36095 2.54236 1.05514 3.34712 1.05514C3.99093 1.05514 4.57036 1.23219 5.08541 1.58628C5.60046 1.90819 5.95455 2.35886 6.1477 2.93828L13.3423 24.7634L19.6194 9.69828C19.8769 9.11886 20.2471 8.66819 20.73 8.34628C21.2128 7.99219 21.7601 7.83124 22.3717 7.86343C22.9833 7.83124 23.5145 7.99219 23.9651 8.34628C24.448 8.66819 24.8182 9.11886 25.0757 9.69828L31.0148 24.6186L38.1611 2.93828C38.3543 2.35886 38.7084 1.90819 39.2234 1.58628C39.7706 1.23219 40.3662 1.05514 41.01 1.05514ZM61.359 8.68429C62.3247 8.68429 63.1295 8.9579 63.7733 9.50514C64.4493 10.0524 64.7873 10.6962 64.7873 11.4366C64.7873 12.4345 64.5298 13.191 64.0147 13.706C63.4997 14.1889 62.8881 14.4303 62.1799 14.4303C61.697 14.4303 61.1498 14.3176 60.5382 14.0923C60.4416 14.0601 60.2163 13.9957 59.8622 13.8991C59.5403 13.8026 59.1862 13.7543 58.7999 13.7543C57.9629 13.7543 57.1582 14.0118 56.3856 14.5269C55.613 15.0419 54.9692 15.8306 54.4542 16.8929C53.9713 17.923 53.7299 19.1623 53.7299 20.6109V32.0546C53.7299 32.8915 53.4563 33.5997 52.909 34.1791C52.3618 34.7264 51.6697 35 50.8327 35C49.9958 35 49.3037 34.7264 48.7564 34.1791C48.2092 33.5997 47.9356 32.8915 47.9356 32.0546V12.1126C47.9356 11.2756 48.2092 10.5835 48.7564 10.0363C49.3037 9.45686 49.9958 9.16714 50.8327 9.16714C51.6697 9.16714 52.3618 9.45686 52.909 10.0363C53.4563 10.5835 53.7299 11.2756 53.7299 12.1126V12.7403C54.4703 11.4205 55.5325 10.4226 56.9167 9.74657C58.3009 9.03838 59.7817 8.68429 61.359 8.68429ZM74.3283 32.0546C74.3283 32.8915 74.0546 33.5997 73.5074 34.1791C72.9602 34.7264 72.2681 35 71.4311 35C70.5942 35 69.9021 34.7264 69.3548 34.1791C68.8076 33.5997 68.534 32.8915 68.534 32.0546V12.1126C68.534 11.2756 68.8076 10.5835 69.3548 10.0363C69.9021 9.45686 70.5942 9.16714 71.4311 9.16714C72.2681 9.16714 72.9602 9.45686 73.5074 10.0363C74.0546 10.5835 74.3283 11.2756 74.3283 12.1126V32.0546ZM71.3828 6.02857C70.2884 6.02857 69.5158 5.85152 69.0651 5.49743C68.6144 5.14333 68.3891 4.51562 68.3891 3.61428V2.69686C68.3891 1.79552 68.6305 1.16781 69.1134 0.813715C69.5963 0.459618 70.3688 0.28257 71.4311 0.28257C72.5578 0.28257 73.3464 0.459618 73.7971 0.813715C74.2478 1.16781 74.4731 1.79552 74.4731 2.69686V3.61428C74.4731 4.54781 74.2317 5.19162 73.7488 5.54571C73.2982 5.86762 72.5095 6.02857 71.3828 6.02857ZM92.741 29.5437C93.1916 29.5437 93.594 29.769 93.9481 30.2197C94.3344 30.6382 94.5275 31.2015 94.5275 31.9097C94.5275 32.7789 94.0447 33.5192 93.079 34.1309C92.1454 34.7103 91.0831 35 89.8921 35C87.8963 35 86.2063 34.5815 84.8221 33.7446C83.4701 32.8754 82.7941 31.0567 82.7941 28.2883V14.9614H80.573C79.8004 14.9614 79.1566 14.7039 78.6415 14.1889C78.1265 13.6738 77.869 13.03 77.869 12.2574C77.869 11.517 78.1265 10.9054 78.6415 10.4226C79.1566 9.90752 79.8004 9.65 80.573 9.65H82.7941V6.55971C82.7941 5.72276 83.0677 5.03067 83.615 4.48343C84.1944 3.904 84.9026 3.61428 85.7395 3.61428C86.5443 3.61428 87.2203 3.904 87.7675 4.48343C88.3148 5.03067 88.5884 5.72276 88.5884 6.55971V9.65H92.0167C92.7892 9.65 93.4331 9.90752 93.9481 10.4226C94.4631 10.9376 94.7207 11.5814 94.7207 12.354C94.7207 13.0944 94.4631 13.7221 93.9481 14.2371C93.4331 14.72 92.7892 14.9614 92.0167 14.9614H88.5884V28.0469C88.5884 28.7229 88.7654 29.2218 89.1195 29.5437C89.4736 29.8334 89.9565 29.9783 90.5681 29.9783C90.8256 29.9783 91.1797 29.9139 91.6304 29.7851C92.0167 29.6242 92.3869 29.5437 92.741 29.5437ZM122.982 21.48C122.95 22.2526 122.644 22.8803 122.065 23.3631C121.485 23.846 120.809 24.0874 120.037 24.0874H104.102C104.489 25.9867 105.374 27.4835 106.758 28.578C108.142 29.6403 109.704 30.1714 111.442 30.1714C112.762 30.1714 113.792 30.0588 114.532 29.8334C115.273 29.5759 115.852 29.3184 116.27 29.0609C116.721 28.7711 117.027 28.578 117.188 28.4814C117.767 28.1917 118.315 28.0469 118.83 28.0469C119.506 28.0469 120.085 28.2883 120.568 28.7711C121.051 29.254 121.292 29.8173 121.292 30.4611C121.292 31.3303 120.841 32.119 119.94 32.8271C119.039 33.5675 117.832 34.1952 116.319 34.7103C114.806 35.2253 113.277 35.4829 111.732 35.4829C109.028 35.4829 106.662 34.9195 104.634 33.7929C102.638 32.6662 101.093 31.121 99.9981 29.1574C98.9037 27.1616 98.3564 24.9244 98.3564 22.4457C98.3564 19.6773 98.9359 17.247 100.095 15.1546C101.254 13.0622 102.783 11.4688 104.682 10.3743C106.581 9.24762 108.609 8.68429 110.766 8.68429C112.89 8.68429 114.886 9.26371 116.753 10.4226C118.653 11.5814 120.165 13.1427 121.292 15.1063C122.419 17.0699 122.982 19.1945 122.982 21.48ZM110.766 13.9957C107.032 13.9957 104.827 15.7501 104.151 19.2589H116.802V18.9209C116.673 17.5689 116.013 16.41 114.822 15.4443C113.631 14.4786 112.279 13.9957 110.766 13.9957ZM141.238 8.68429C142.204 8.68429 143.008 8.9579 143.652 9.50514C144.328 10.0524 144.666 10.6962 144.666 11.4366C144.666 12.4345 144.409 13.191 143.894 13.706C143.379 14.1889 142.767 14.4303 142.059 14.4303C141.576 14.4303 141.029 14.3176 140.417 14.0923C140.32 14.0601 140.095 13.9957 139.741 13.8991C139.419 13.8026 139.065 13.7543 138.679 13.7543C137.842 13.7543 137.037 14.0118 136.264 14.5269C135.492 15.0419 134.848 15.8306 134.333 16.8929C133.85 17.923 133.609 19.1623 133.609 20.6109V32.0546C133.609 32.8915 133.335 33.5997 132.788 34.1791C132.241 34.7264 131.549 35 130.712 35C129.875 35 129.183 34.7264 128.635 34.1791C128.088 33.5997 127.814 32.8915 127.814 32.0546V12.1126C127.814 11.2756 128.088 10.5835 128.635 10.0363C129.183 9.45686 129.875 9.16714 130.712 9.16714C131.549 9.16714 132.241 9.45686 132.788 10.0363C133.335 10.5835 133.609 11.2756 133.609 12.1126V12.7403C134.349 11.4205 135.411 10.4226 136.796 9.74657C138.18 9.03838 139.661 8.68429 141.238 8.68429Z" fill="#2D9CDB"/>
</svg>
