<svg width="229" height="47" viewBox="0 0 229 47" fill="none" xmlns="http://www.w3.org/2000/svg">
<path d="M10.5802 32.125C10.8388 32.125 11.0611 32.2181 11.2473 32.4043C11.4438 32.5801 11.5421 32.8025 11.5421 33.0714V42.0537C11.5421 42.3226 11.4541 42.5501 11.2783 42.7363C11.1025 42.9121 10.8698 43 10.5802 43C10.2906 43 10.0528 42.9121 9.86659 42.7363C9.69077 42.5605 9.60286 42.3329 9.60286 42.0537V35.8017L7.04314 39.7111C6.93971 39.8352 6.82077 39.9387 6.68632 40.0214C6.55187 40.0938 6.41225 40.1248 6.26746 40.1145C6.13301 40.1248 5.99856 40.0938 5.86411 40.0214C5.72966 39.9387 5.61072 39.8352 5.5073 39.7111L2.94757 35.6621V42.0537C2.94757 42.3329 2.86483 42.5605 2.69935 42.7363C2.53387 42.9121 2.31668 43 2.04778 43C1.78923 43 1.57721 42.9121 1.41173 42.7363C1.24625 42.5501 1.16351 42.3226 1.16351 42.0537V33.0714C1.16351 32.8128 1.25659 32.5904 1.44276 32.4043C1.63926 32.2181 1.87196 32.125 2.14086 32.125C2.296 32.125 2.45114 32.1664 2.60627 32.2491C2.76141 32.3215 2.88034 32.4198 2.96308 32.5439L6.34503 37.7409L9.82005 32.5439C9.90279 32.4198 10.0114 32.3215 10.1458 32.2491C10.2906 32.1664 10.4354 32.125 10.5802 32.125ZM22.3912 41.7899C22.4429 41.9244 22.4688 42.0485 22.4688 42.1623C22.4688 42.4312 22.3809 42.6535 22.205 42.8294C22.0292 42.9948 21.8276 43.0776 21.6 43.0776C21.4139 43.0776 21.2432 43.0207 21.0881 42.9069C20.9433 42.7932 20.8295 42.638 20.7468 42.4415L19.9401 40.5644H15.317L14.5103 42.457C14.4379 42.6535 14.3242 42.8087 14.169 42.9224C14.0243 43.0259 13.8639 43.0776 13.6881 43.0776C13.4192 43.0776 13.2124 43.0052 13.0676 42.8604C12.9331 42.7156 12.8659 42.5191 12.8659 42.2709C12.8659 42.1778 12.8814 42.0795 12.9125 41.9761L16.7753 32.699C16.8581 32.4922 16.9822 32.3319 17.1476 32.2181C17.3131 32.1043 17.4993 32.0578 17.7061 32.0785C17.8923 32.0785 18.0629 32.1354 18.2181 32.2491C18.3836 32.3526 18.5025 32.5025 18.5749 32.699L22.3912 41.7899ZM19.1799 38.7803L17.613 35.1502L16.0772 38.7803H19.1799ZM28.4364 32.1405C29.4086 32.1405 30.2411 32.3836 30.9341 32.8697C31.6373 33.3454 32.17 33.997 32.532 34.8244C32.9043 35.6414 33.0904 36.5567 33.0904 37.5703C33.0904 38.5838 32.9043 39.5043 32.532 40.3317C32.17 41.1487 31.6373 41.8003 30.9341 42.2864C30.2411 42.7621 29.4086 43 28.4364 43H24.7287C24.4598 43 24.2322 42.9121 24.0461 42.7363C23.8702 42.5501 23.7823 42.3226 23.7823 42.0537V33.0869C23.7823 32.818 23.8702 32.5956 24.0461 32.4198C24.2322 32.2336 24.4598 32.1405 24.7287 32.1405H28.4364ZM28.2813 41.2159C29.2121 41.2159 29.9102 40.8746 30.3756 40.1921C30.841 39.4991 31.0737 38.6252 31.0737 37.5703C31.0737 36.5154 30.8358 35.6466 30.3601 34.964C29.8947 34.2711 29.2017 33.9246 28.2813 33.9246H25.7215V41.2159H28.2813ZM43.389 41.4797C43.5234 41.5624 43.6269 41.671 43.6993 41.8055C43.782 41.9399 43.8234 42.0795 43.8234 42.2243C43.8234 42.4105 43.7613 42.5811 43.6372 42.7363C43.4821 42.9224 43.2442 43.0155 42.9236 43.0155C42.6754 43.0155 42.4478 42.9586 42.241 42.8449C41.4963 42.4208 41.124 41.5572 41.124 40.2541C41.124 39.8818 40.9999 39.587 40.7517 39.3698C40.5138 39.1526 40.1674 39.0441 39.7123 39.0441H36.8113V42.0537C36.8113 42.3329 36.7337 42.5605 36.5786 42.7363C36.4338 42.9121 36.2373 43 35.989 43C35.6891 43 35.4254 42.9121 35.1979 42.7363C34.9807 42.5501 34.8721 42.3226 34.8721 42.0537V33.0869C34.8721 32.818 34.96 32.5956 35.1358 32.4198C35.322 32.2336 35.5495 32.1405 35.8184 32.1405H40.2863C40.8241 32.1405 41.3309 32.2853 41.8066 32.5749C42.2824 32.8645 42.6599 33.2627 42.9391 33.7695C43.2287 34.2762 43.3735 34.8451 43.3735 35.4759C43.3735 35.9931 43.2339 36.4998 42.9546 36.9963C42.6754 37.4824 42.3134 37.8702 41.8687 38.1598C42.5202 38.6148 42.877 39.225 42.9391 39.9904C42.9701 40.1559 42.9856 40.3162 42.9856 40.4713C43.027 40.7919 43.0684 41.0246 43.1097 41.1694C43.1511 41.3039 43.2442 41.4073 43.389 41.4797ZM40.2087 37.4462C40.3949 37.4462 40.5759 37.3583 40.7517 37.1824C40.9275 37.0066 41.0723 36.7739 41.1861 36.4843C41.2998 36.1844 41.3567 35.8638 41.3567 35.5225C41.3567 35.2329 41.2998 34.9692 41.1861 34.7313C41.0723 34.4831 40.9275 34.2866 40.7517 34.1418C40.5759 33.997 40.3949 33.9246 40.2087 33.9246H36.8113V37.4462H40.2087ZM54.0394 41.7899C54.0911 41.9244 54.1169 42.0485 54.1169 42.1623C54.1169 42.4312 54.029 42.6535 53.8532 42.8294C53.6774 42.9948 53.4757 43.0776 53.2482 43.0776C53.062 43.0776 52.8914 43.0207 52.7362 42.9069C52.5915 42.7932 52.4777 42.638 52.3949 42.4415L51.5882 40.5644H46.9652L46.1585 42.457C46.0861 42.6535 45.9724 42.8087 45.8172 42.9224C45.6724 43.0259 45.5121 43.0776 45.3363 43.0776C45.0674 43.0776 44.8606 43.0052 44.7158 42.8604C44.5813 42.7156 44.5141 42.5191 44.5141 42.2709C44.5141 42.1778 44.5296 42.0795 44.5606 41.9761L48.4235 32.699C48.5062 32.4922 48.6303 32.3319 48.7958 32.2181C48.9613 32.1043 49.1475 32.0578 49.3543 32.0785C49.5405 32.0785 49.7111 32.1354 49.8662 32.2491C50.0317 32.3526 50.1507 32.5025 50.2231 32.699L54.0394 41.7899ZM50.8281 38.7803L49.2612 35.1502L47.7254 38.7803H50.8281ZM58.921 43.1551C58.1764 43.1551 57.5145 43.0621 56.9353 42.8759C56.3561 42.6897 55.8132 42.3743 55.3064 41.9296C55.0272 41.6814 54.8875 41.4073 54.8875 41.1074C54.8875 40.8695 54.9754 40.6626 55.1513 40.4868C55.3271 40.3006 55.5391 40.2076 55.7873 40.2076C55.9838 40.2076 56.1596 40.2696 56.3148 40.3937C56.7285 40.735 57.1318 40.9832 57.5248 41.1384C57.9178 41.2935 58.3832 41.3711 58.921 41.3711C59.5002 41.3711 59.9967 41.2418 60.4103 40.9832C60.8344 40.7247 61.0464 40.4041 61.0464 40.0214C61.0464 39.556 60.8396 39.194 60.4259 38.9355C60.0122 38.6666 59.3554 38.4649 58.4556 38.3304C56.1907 37.9995 55.0582 36.9446 55.0582 35.1657C55.0582 34.5141 55.2288 33.9505 55.5701 33.4747C55.9114 32.9886 56.3768 32.6215 56.9663 32.3732C57.5559 32.1147 58.2126 31.9854 58.9366 31.9854C59.5881 31.9854 60.1983 32.0837 60.7672 32.2802C61.3463 32.4767 61.8272 32.7352 62.2099 33.0558C62.5098 33.2937 62.6598 33.5678 62.6598 33.8781C62.6598 34.1159 62.5719 34.3279 62.3961 34.5141C62.2203 34.6899 62.0134 34.7778 61.7755 34.7778C61.6204 34.7778 61.4808 34.7313 61.3567 34.6382C61.0878 34.421 60.7103 34.2245 60.2242 34.0487C59.7484 33.8625 59.3192 33.7695 58.9366 33.7695C58.285 33.7695 57.7782 33.8936 57.4162 34.1418C57.0646 34.3797 56.8888 34.6951 56.8888 35.0881C56.8888 35.5328 57.0698 35.869 57.4318 36.0965C57.8041 36.324 58.3832 36.5102 59.1693 36.655C60.0587 36.8101 60.7672 37.0118 61.2946 37.26C61.8324 37.4979 62.2358 37.8288 62.5047 38.2529C62.7736 38.6666 62.908 39.2199 62.908 39.9128C62.908 40.5644 62.7219 41.1384 62.3495 41.6348C61.9876 42.1209 61.5015 42.4984 60.8913 42.7673C60.2811 43.0259 59.6243 43.1551 58.921 43.1551ZM76.6367 32.668C76.9574 32.8335 77.1177 33.0972 77.1177 33.4592C77.1177 33.6764 77.0401 33.8884 76.885 34.0952C76.7195 34.3124 76.5075 34.421 76.2489 34.421C76.0731 34.421 75.8973 34.3745 75.7215 34.2814C75.2147 34.0435 74.6665 33.9246 74.077 33.9246C73.3531 33.9246 72.7222 34.0797 72.1844 34.39C71.6466 34.6899 71.2329 35.1191 70.9433 35.6776C70.6537 36.2258 70.5089 36.8566 70.5089 37.5703C70.5089 38.7907 70.8347 39.7163 71.4863 40.3472C72.1482 40.9781 73.0118 41.2935 74.077 41.2935C74.7079 41.2935 75.256 41.1746 75.7215 40.9367C75.9076 40.854 76.0731 40.8126 76.2179 40.8126C76.4868 40.8126 76.7143 40.9264 76.9005 41.1539C77.0556 41.3504 77.1332 41.5624 77.1332 41.7899C77.1332 41.9554 77.0918 42.1054 77.0091 42.2398C76.9263 42.3743 76.8074 42.4777 76.6523 42.5501C75.8456 42.9535 74.9871 43.1551 74.077 43.1551C73.0635 43.1551 72.1327 42.9431 71.2846 42.5191C70.4365 42.0847 69.7591 41.4486 69.2523 40.6109C68.7455 39.7732 68.4922 38.7596 68.4922 37.5703C68.4922 36.5154 68.73 35.569 69.2058 34.7313C69.6919 33.8936 70.3589 33.242 71.207 32.7766C72.0551 32.3008 73.0118 32.063 74.077 32.063C74.9975 32.063 75.8507 32.2646 76.6367 32.668ZM86.6267 32.1405C86.9163 32.1405 87.149 32.2285 87.3248 32.4043C87.5007 32.5801 87.5886 32.8076 87.5886 33.0869V42.0537C87.5886 42.3226 87.4955 42.5501 87.3093 42.7363C87.1232 42.9121 86.8853 43 86.5957 43C86.3371 43 86.1148 42.9121 85.9286 42.7363C85.7425 42.5501 85.6494 42.3226 85.6494 42.0537V38.439H80.7006V42.0537C80.7006 42.3226 80.6023 42.5501 80.4058 42.7363C80.2093 42.9121 79.9818 43 79.7232 43C79.444 43 79.2113 42.9121 79.0251 42.7363C78.8493 42.5501 78.7614 42.3226 78.7614 42.0537V33.0869C78.7614 32.818 78.8545 32.5956 79.0406 32.4198C79.2268 32.2336 79.4647 32.1405 79.7542 32.1405C80.0128 32.1405 80.2352 32.2336 80.4213 32.4198C80.6075 32.5956 80.7006 32.818 80.7006 33.0869V36.655H85.6494V33.0869C85.6494 32.818 85.7476 32.5956 85.9441 32.4198C86.1406 32.2336 86.3682 32.1405 86.6267 32.1405ZM98.4286 41.4797C98.5631 41.5624 98.6665 41.671 98.7389 41.8055C98.8216 41.9399 98.863 42.0795 98.863 42.2243C98.863 42.4105 98.801 42.5811 98.6768 42.7363C98.5217 42.9224 98.2838 43.0155 97.9632 43.0155C97.715 43.0155 97.4875 42.9586 97.2806 42.8449C96.536 42.4208 96.1637 41.5572 96.1637 40.2541C96.1637 39.8818 96.0396 39.587 95.7913 39.3698C95.5535 39.1526 95.207 39.0441 94.7519 39.0441H91.8509V42.0537C91.8509 42.3329 91.7733 42.5605 91.6182 42.7363C91.4734 42.9121 91.2769 43 91.0287 43C90.7288 43 90.465 42.9121 90.2375 42.7363C90.0203 42.5501 89.9117 42.3226 89.9117 42.0537V33.0869C89.9117 32.818 89.9996 32.5956 90.1754 32.4198C90.3616 32.2336 90.5891 32.1405 90.858 32.1405H95.3259C95.8637 32.1405 96.3705 32.2853 96.8463 32.5749C97.322 32.8645 97.6995 33.2627 97.9787 33.7695C98.2683 34.2762 98.4131 34.8451 98.4131 35.4759C98.4131 35.9931 98.2735 36.4998 97.9943 36.9963C97.715 37.4824 97.353 37.8702 96.9083 38.1598C97.5599 38.6148 97.9167 39.225 97.9787 39.9904C98.0098 40.1559 98.0253 40.3162 98.0253 40.4713C98.0667 40.7919 98.108 41.0246 98.1494 41.1694C98.1908 41.3039 98.2838 41.4073 98.4286 41.4797ZM95.2484 37.4462C95.4345 37.4462 95.6155 37.3583 95.7913 37.1824C95.9672 37.0066 96.1119 36.7739 96.2257 36.4843C96.3395 36.1844 96.3964 35.8638 96.3964 35.5225C96.3964 35.2329 96.3395 34.9692 96.2257 34.7313C96.1119 34.4831 95.9672 34.2866 95.7913 34.1418C95.6155 33.997 95.4345 33.9246 95.2484 33.9246H91.8509V37.4462H95.2484ZM102.501 42.0537C102.501 42.3226 102.403 42.5501 102.207 42.7363C102.01 42.9121 101.782 43 101.524 43C101.245 43 101.012 42.9121 100.826 42.7363C100.65 42.5501 100.562 42.3226 100.562 42.0537V33.0869C100.562 32.818 100.655 32.5956 100.841 32.4198C101.028 32.2336 101.265 32.1405 101.555 32.1405C101.814 32.1405 102.036 32.2336 102.222 32.4198C102.408 32.5956 102.501 32.818 102.501 33.0869V42.0537ZM108.325 43.1551C107.58 43.1551 106.918 43.0621 106.339 42.8759C105.76 42.6897 105.217 42.3743 104.71 41.9296C104.431 41.6814 104.291 41.4073 104.291 41.1074C104.291 40.8695 104.379 40.6626 104.555 40.4868C104.731 40.3006 104.943 40.2076 105.191 40.2076C105.388 40.2076 105.564 40.2696 105.719 40.3937C106.132 40.735 106.536 40.9832 106.929 41.1384C107.322 41.2935 107.787 41.3711 108.325 41.3711C108.904 41.3711 109.401 41.2418 109.814 40.9832C110.238 40.7247 110.45 40.4041 110.45 40.0214C110.45 39.556 110.243 39.194 109.83 38.9355C109.416 38.6666 108.759 38.4649 107.86 38.3304C105.595 37.9995 104.462 36.9446 104.462 35.1657C104.462 34.5141 104.633 33.9505 104.974 33.4747C105.315 32.9886 105.781 32.6215 106.37 32.3732C106.96 32.1147 107.616 31.9854 108.34 31.9854C108.992 31.9854 109.602 32.0837 110.171 32.2802C110.75 32.4767 111.231 32.7352 111.614 33.0558C111.914 33.2937 112.064 33.5678 112.064 33.8781C112.064 34.1159 111.976 34.3279 111.8 34.5141C111.624 34.6899 111.417 34.7778 111.179 34.7778C111.024 34.7778 110.885 34.7313 110.761 34.6382C110.492 34.421 110.114 34.2245 109.628 34.0487C109.152 33.8625 108.723 33.7695 108.34 33.7695C107.689 33.7695 107.182 33.8936 106.82 34.1418C106.468 34.3797 106.293 34.6951 106.293 35.0881C106.293 35.5328 106.474 35.869 106.836 36.0965C107.208 36.324 107.787 36.5102 108.573 36.655C109.463 36.8101 110.171 37.0118 110.698 37.26C111.236 37.4979 111.64 37.8288 111.909 38.2529C112.177 38.6666 112.312 39.2199 112.312 39.9128C112.312 40.5644 112.126 41.1384 111.753 41.6348C111.391 42.1209 110.905 42.4984 110.295 42.7673C109.685 43.0259 109.028 43.1551 108.325 43.1551ZM121.227 32.1405C121.506 32.1405 121.734 32.2233 121.91 32.3888C122.086 32.5542 122.174 32.7714 122.174 33.0403C122.174 33.3092 122.086 33.5264 121.91 33.6919C121.734 33.847 121.506 33.9246 121.227 33.9246H118.792V42.0537C118.792 42.3226 118.693 42.5501 118.497 42.7363C118.3 42.9121 118.057 43 117.768 43C117.478 43 117.24 42.9121 117.054 42.7363C116.868 42.5501 116.775 42.3226 116.775 42.0537V33.9246H114.339C114.06 33.9246 113.832 33.8419 113.657 33.6764C113.481 33.5109 113.393 33.2937 113.393 33.0248C113.393 32.7663 113.481 32.5542 113.657 32.3888C113.843 32.2233 114.07 32.1405 114.339 32.1405H121.227ZM125.741 42.0537C125.741 42.3226 125.643 42.5501 125.447 42.7363C125.25 42.9121 125.022 43 124.764 43C124.485 43 124.252 42.9121 124.066 42.7363C123.89 42.5501 123.802 42.3226 123.802 42.0537V33.0869C123.802 32.818 123.895 32.5956 124.081 32.4198C124.267 32.2336 124.505 32.1405 124.795 32.1405C125.053 32.1405 125.276 32.2336 125.462 32.4198C125.648 32.5956 125.741 32.818 125.741 33.0869V42.0537ZM136.591 41.7899C136.643 41.9244 136.669 42.0485 136.669 42.1623C136.669 42.4312 136.581 42.6535 136.405 42.8294C136.229 42.9948 136.028 43.0776 135.8 43.0776C135.614 43.0776 135.443 43.0207 135.288 42.9069C135.143 42.7932 135.03 42.638 134.947 42.4415L134.14 40.5644H129.517L128.71 42.457C128.638 42.6535 128.524 42.8087 128.369 42.9224C128.224 43.0259 128.064 43.0776 127.888 43.0776C127.619 43.0776 127.412 43.0052 127.268 42.8604C127.133 42.7156 127.066 42.5191 127.066 42.2709C127.066 42.1778 127.081 42.0795 127.113 41.9761L130.975 32.699C131.058 32.4922 131.182 32.3319 131.348 32.2181C131.513 32.1043 131.699 32.0578 131.906 32.0785C132.092 32.0785 132.263 32.1354 132.418 32.2491C132.584 32.3526 132.703 32.5025 132.775 32.699L136.591 41.7899ZM133.38 38.7803L131.813 35.1502L130.277 38.7803H133.38ZM146.22 32.1405C146.468 32.1405 146.67 32.2233 146.825 32.3888C146.98 32.5542 147.058 32.7611 147.058 33.0093V42.0537C147.058 42.3226 146.965 42.5501 146.779 42.7363C146.603 42.9121 146.38 43 146.111 43C145.967 43 145.822 42.9793 145.677 42.9379C145.543 42.8862 145.444 42.819 145.382 42.7363L139.689 35.507V42.1312C139.689 42.3795 139.606 42.5863 139.441 42.7518C139.286 42.9173 139.079 43 138.82 43C138.572 43 138.37 42.9173 138.215 42.7518C138.06 42.5863 137.982 42.3795 137.982 42.1312V33.0869C137.982 32.818 138.07 32.5956 138.246 32.4198C138.432 32.2336 138.66 32.1405 138.929 32.1405C139.084 32.1405 139.234 32.1716 139.379 32.2336C139.534 32.2957 139.648 32.3784 139.72 32.4818L145.367 39.6801V33.0093C145.367 32.7611 145.444 32.5542 145.6 32.3888C145.765 32.2233 145.972 32.1405 146.22 32.1405ZM161.34 32.668C161.661 32.8335 161.821 33.0972 161.821 33.4592C161.821 33.6764 161.743 33.8884 161.588 34.0952C161.423 34.3124 161.211 34.421 160.952 34.421C160.776 34.421 160.6 34.3745 160.425 34.2814C159.918 34.0435 159.37 33.9246 158.78 33.9246C158.056 33.9246 157.425 34.0797 156.888 34.39C156.35 34.6899 155.936 35.1191 155.646 35.6776C155.357 36.2258 155.212 36.8566 155.212 37.5703C155.212 38.7907 155.538 39.7163 156.189 40.3472C156.851 40.9781 157.715 41.2935 158.78 41.2935C159.411 41.2935 159.959 41.1746 160.425 40.9367C160.611 40.854 160.776 40.8126 160.921 40.8126C161.19 40.8126 161.417 40.9264 161.604 41.1539C161.759 41.3504 161.836 41.5624 161.836 41.7899C161.836 41.9554 161.795 42.1054 161.712 42.2398C161.63 42.3743 161.511 42.4777 161.355 42.5501C160.549 42.9535 159.69 43.1551 158.78 43.1551C157.767 43.1551 156.836 42.9431 155.988 42.5191C155.14 42.0847 154.462 41.4486 153.955 40.6109C153.449 39.7732 153.195 38.7596 153.195 37.5703C153.195 36.5154 153.433 35.569 153.909 34.7313C154.395 33.8936 155.062 33.242 155.91 32.7766C156.758 32.3008 157.715 32.063 158.78 32.063C159.701 32.063 160.554 32.2646 161.34 32.668ZM173.455 37.5703C173.455 38.5942 173.228 39.5353 172.773 40.3937C172.318 41.2418 171.687 41.9141 170.88 42.4105C170.084 42.9069 169.184 43.1551 168.181 43.1551C167.177 43.1551 166.272 42.9069 165.466 42.4105C164.669 41.9141 164.044 41.2418 163.589 40.3937C163.144 39.5353 162.922 38.5942 162.922 37.5703C162.922 36.5464 163.144 35.6104 163.589 34.7623C164.044 33.9039 164.669 33.2265 165.466 32.7301C166.272 32.2336 167.177 31.9854 168.181 31.9854C169.184 31.9854 170.084 32.2336 170.88 32.7301C171.687 33.2265 172.318 33.9039 172.773 34.7623C173.228 35.6104 173.455 36.5464 173.455 37.5703ZM171.438 37.5703C171.438 36.8773 171.299 36.2516 171.02 35.6931C170.74 35.1243 170.353 34.6744 169.856 34.3435C169.36 34.0125 168.801 33.847 168.181 33.847C167.55 33.847 166.986 34.0125 166.49 34.3435C166.004 34.6641 165.621 35.1088 165.342 35.6776C165.073 36.2465 164.938 36.8773 164.938 37.5703C164.938 38.2632 165.073 38.8941 165.342 39.4629C165.621 40.0317 166.004 40.4816 166.49 40.8126C166.986 41.1332 167.55 41.2935 168.181 41.2935C168.801 41.2935 169.36 41.128 169.856 40.7971C170.353 40.4661 170.74 40.0214 171.02 39.4629C171.299 38.8941 171.438 38.2632 171.438 37.5703ZM181.224 41.1849C181.493 41.1849 181.716 41.2728 181.891 41.4486C182.077 41.6141 182.171 41.8313 182.171 42.1002C182.171 42.3588 182.077 42.576 181.891 42.7518C181.716 42.9173 181.493 43 181.224 43H176.182C175.913 43 175.686 42.9121 175.5 42.7363C175.324 42.5501 175.236 42.3226 175.236 42.0537V33.0869C175.236 32.818 175.329 32.5956 175.515 32.4198C175.701 32.2336 175.939 32.1405 176.229 32.1405C176.487 32.1405 176.71 32.2336 176.896 32.4198C177.082 32.5956 177.175 32.818 177.175 33.0869V41.1849H181.224ZM189.935 41.1849C190.204 41.1849 190.427 41.2728 190.603 41.4486C190.789 41.6141 190.882 41.8313 190.882 42.1002C190.882 42.3588 190.789 42.576 190.603 42.7518C190.427 42.9173 190.204 43 189.935 43H184.894C184.625 43 184.397 42.9121 184.211 42.7363C184.035 42.5501 183.947 42.3226 183.947 42.0537V33.0869C183.947 32.818 184.04 32.5956 184.226 32.4198C184.413 32.2336 184.651 32.1405 184.94 32.1405C185.199 32.1405 185.421 32.2336 185.607 32.4198C185.793 32.5956 185.886 32.818 185.886 33.0869V41.1849H189.935ZM198.802 41.2159C199.071 41.2159 199.293 41.309 199.469 41.4952C199.655 41.671 199.748 41.8779 199.748 42.1157C199.748 42.3743 199.655 42.5863 199.469 42.7518C199.293 42.9173 199.071 43 198.802 43H193.605C193.336 43 193.108 42.9121 192.922 42.7363C192.746 42.5501 192.658 42.3226 192.658 42.0537V33.0869C192.658 32.818 192.746 32.5956 192.922 32.4198C193.108 32.2336 193.336 32.1405 193.605 32.1405H198.802C199.071 32.1405 199.293 32.2285 199.469 32.4043C199.655 32.5697 199.748 32.7869 199.748 33.0558C199.748 33.3144 199.66 33.5264 199.484 33.6919C199.309 33.847 199.081 33.9246 198.802 33.9246H194.598V36.5619H198.104C198.373 36.5619 198.595 36.6498 198.771 36.8256C198.957 36.9911 199.05 37.2083 199.05 37.4772C199.05 37.7357 198.962 37.9478 198.786 38.1132C198.61 38.2684 198.383 38.3459 198.104 38.3459H194.598V41.2159H198.802ZM209.541 37.1359C209.81 37.1359 210.033 37.229 210.208 37.4151C210.384 37.591 210.472 37.8133 210.472 38.0822V41.3711C210.472 41.7331 210.312 42.0123 209.991 42.2088C208.978 42.8397 207.866 43.1551 206.656 43.1551C205.632 43.1551 204.686 42.9069 203.817 42.4105C202.948 41.9037 202.26 41.2263 201.753 40.3782C201.247 39.5198 200.993 38.5838 200.993 37.5703C200.993 36.5567 201.247 35.6259 201.753 34.7778C202.26 33.9194 202.948 33.242 203.817 32.7456C204.686 32.2388 205.632 31.9854 206.656 31.9854C207.68 31.9854 208.569 32.1923 209.324 32.6059C209.479 32.6887 209.593 32.7973 209.665 32.9317C209.748 33.0662 209.789 33.211 209.789 33.3661C209.789 33.6247 209.702 33.8522 209.526 34.0487C209.36 34.2349 209.153 34.3279 208.905 34.3279C208.75 34.3279 208.579 34.2866 208.393 34.2038C207.835 33.966 207.256 33.847 206.656 33.847C205.994 33.847 205.384 34.0177 204.825 34.359C204.267 34.6899 203.822 35.1398 203.491 35.7086C203.17 36.2775 203.01 36.898 203.01 37.5703C203.01 38.2425 203.17 38.8631 203.491 39.4319C203.822 40.0007 204.267 40.4558 204.825 40.7971C205.384 41.128 205.994 41.2935 206.656 41.2935C206.945 41.2935 207.256 41.2677 207.587 41.2159C207.918 41.1642 208.207 41.097 208.455 41.0143V38.9975H206.997C206.728 38.9975 206.501 38.9096 206.314 38.7338C206.139 38.558 206.051 38.3356 206.051 38.0667C206.051 37.7978 206.139 37.5754 206.314 37.3996C206.501 37.2238 206.728 37.1359 206.997 37.1359H209.541ZM218.482 41.2159C218.75 41.2159 218.973 41.309 219.149 41.4952C219.335 41.671 219.428 41.8779 219.428 42.1157C219.428 42.3743 219.335 42.5863 219.149 42.7518C218.973 42.9173 218.75 43 218.482 43H213.284C213.016 43 212.788 42.9121 212.602 42.7363C212.426 42.5501 212.338 42.3226 212.338 42.0537V33.0869C212.338 32.818 212.426 32.5956 212.602 32.4198C212.788 32.2336 213.016 32.1405 213.284 32.1405H218.482C218.75 32.1405 218.973 32.2285 219.149 32.4043C219.335 32.5697 219.428 32.7869 219.428 33.0558C219.428 33.3144 219.34 33.5264 219.164 33.6919C218.988 33.847 218.761 33.9246 218.482 33.9246H214.277V36.5619H217.783C218.052 36.5619 218.275 36.6498 218.45 36.8256C218.637 36.9911 218.73 37.2083 218.73 37.4772C218.73 37.7357 218.642 37.9478 218.466 38.1132C218.29 38.2684 218.063 38.3459 217.783 38.3459H214.277V41.2159H218.482Z" fill="#2D9CDB"/>
<path d="M1.02 20.51C0.84 20.27 0.75 19.97 0.75 19.61C0.75 19.09 1.01 18.65 1.53 18.29C1.81 18.11 2.1 18.02 2.4 18.02C2.82 18.02 3.22 18.21 3.6 18.59C4.2 19.21 4.82 19.67 5.46 19.97C6.12 20.27 6.91 20.42 7.83 20.42C9.39 20.36 10.17 19.77 10.17 18.65C10.17 18.07 9.9 17.63 9.36 17.33C8.84 17.03 8.02 16.73 6.9 16.43C5.74 16.11 4.79 15.79 4.05 15.47C3.33 15.15 2.7 14.67 2.16 14.03C1.64 13.37 1.38 12.49 1.38 11.39C1.38 10.43 1.65 9.6 2.19 8.9C2.75 8.18 3.47 7.63 4.35 7.25C5.25 6.85 6.2 6.65 7.2 6.65C8.22 6.65 9.24 6.84 10.26 7.22C11.28 7.6 12.08 8.16 12.66 8.9C12.92 9.22 13.05 9.58 13.05 9.98C13.05 10.44 12.86 10.82 12.48 11.12C12.2 11.34 11.88 11.45 11.52 11.45C11.08 11.45 10.72 11.31 10.44 11.03C10.08 10.59 9.61 10.24 9.03 9.98C8.47 9.72 7.83 9.59 7.11 9.59C5.59 9.59 4.83 10.14 4.83 11.24C4.83 11.68 4.97 12.04 5.25 12.32C5.53 12.58 5.88 12.79 6.3 12.95C6.74 13.09 7.35 13.27 8.13 13.49C9.21 13.79 10.11 14.1 10.83 14.42C11.55 14.74 12.16 15.23 12.66 15.89C13.16 16.55 13.41 17.42 13.41 18.5C13.41 19.48 13.12 20.34 12.54 21.08C11.96 21.8 11.21 22.35 10.29 22.73C9.39 23.11 8.46 23.3 7.5 23.3C6.18 23.3 4.95 23.08 3.81 22.64C2.67 22.2 1.74 21.49 1.02 20.51ZM23.4127 6.65C25.1127 6.65 26.4827 6.92 27.5227 7.46C28.5627 7.98 29.0827 8.68 29.0827 9.56C29.0827 10 28.9527 10.39 28.6927 10.73C28.4327 11.05 28.0927 11.21 27.6727 11.21C27.3527 11.21 27.0927 11.17 26.8927 11.09C26.6927 10.99 26.4927 10.87 26.2927 10.73C26.1127 10.57 25.9327 10.44 25.7527 10.34C25.5527 10.24 25.2527 10.15 24.8527 10.07C24.4727 9.99 24.1627 9.95 23.9227 9.95C22.4227 9.95 21.2427 10.42 20.3827 11.36C19.5427 12.28 19.1227 13.49 19.1227 14.99C19.1227 16.43 19.5527 17.63 20.4127 18.59C21.2727 19.53 22.3727 20 23.7127 20C24.6927 20 25.4227 19.88 25.9027 19.64C26.0227 19.58 26.1827 19.48 26.3827 19.34C26.6027 19.18 26.8027 19.06 26.9827 18.98C27.1627 18.9 27.3827 18.86 27.6427 18.86C28.1427 18.86 28.5327 19.02 28.8127 19.34C29.1127 19.66 29.2627 20.07 29.2627 20.57C29.2627 21.05 28.9827 21.5 28.4227 21.92C27.8627 22.34 27.1227 22.68 26.2027 22.94C25.2827 23.18 24.3027 23.3 23.2627 23.3C21.7227 23.3 20.3627 22.94 19.1827 22.22C18.0227 21.5 17.1227 20.51 16.4827 19.25C15.8427 17.97 15.5227 16.55 15.5227 14.99C15.5227 13.37 15.8527 11.93 16.5127 10.67C17.1927 9.41 18.1327 8.43 19.3327 7.73C20.5327 7.01 21.8927 6.65 23.4127 6.65ZM40.2921 6.65C42.2721 6.65 43.6421 7.26 44.4021 8.48C45.1621 9.68 45.5421 11.35 45.5421 13.49V21.17C45.5421 21.69 45.3721 22.13 45.0321 22.49C44.6921 22.83 44.2621 23 43.7421 23C43.2221 23 42.7921 22.83 42.4521 22.49C42.1121 22.13 41.9421 21.69 41.9421 21.17V13.49C41.9421 12.39 41.7221 11.53 41.2821 10.91C40.8621 10.27 40.1121 9.95 39.0321 9.95C37.9121 9.95 37.0321 10.29 36.3921 10.97C35.7721 11.63 35.4621 12.47 35.4621 13.49V21.17C35.4621 21.69 35.2921 22.13 34.9521 22.49C34.6121 22.83 34.1821 23 33.6621 23C33.1421 23 32.7121 22.83 32.3721 22.49C32.0321 22.13 31.8621 21.69 31.8621 21.17V2.63C31.8621 2.11 32.0321 1.68 32.3721 1.34C32.7121 0.979999 33.1421 0.8 33.6621 0.8C34.1821 0.8 34.6121 0.979999 34.9521 1.34C35.2921 1.68 35.4621 2.11 35.4621 2.63V9.26C36.0021 8.54 36.6821 7.93 37.5021 7.43C38.3421 6.91 39.2721 6.65 40.2921 6.65ZM64.8602 14.99C64.8602 16.59 64.5002 18.03 63.7802 19.31C63.0602 20.57 62.0702 21.55 60.8102 22.25C59.5702 22.95 58.2002 23.3 56.7002 23.3C55.1802 23.3 53.8002 22.95 52.5602 22.25C51.3202 21.55 50.3402 20.57 49.6202 19.31C48.9002 18.03 48.5402 16.59 48.5402 14.99C48.5402 13.39 48.9002 11.96 49.6202 10.7C50.3402 9.42 51.3202 8.43 52.5602 7.73C53.8002 7.01 55.1802 6.65 56.7002 6.65C58.2002 6.65 59.5702 7.01 60.8102 7.73C62.0702 8.43 63.0602 9.42 63.7802 10.7C64.5002 11.96 64.8602 13.39 64.8602 14.99ZM61.2602 14.99C61.2602 14.01 61.0502 13.14 60.6302 12.38C60.2302 11.6 59.6802 11 58.9802 10.58C58.3002 10.16 57.5402 9.95 56.7002 9.95C55.8602 9.95 55.0902 10.16 54.3902 10.58C53.7102 11 53.1602 11.6 52.7402 12.38C52.3402 13.14 52.1402 14.01 52.1402 14.99C52.1402 15.97 52.3402 16.84 52.7402 17.6C53.1602 18.36 53.7102 18.95 54.3902 19.37C55.0902 19.79 55.8602 20 56.7002 20C57.5402 20 58.3002 19.79 58.9802 19.37C59.6802 18.95 60.2302 18.36 60.6302 17.6C61.0502 16.84 61.2602 15.97 61.2602 14.99ZM71.768 21.17C71.768 21.69 71.588 22.13 71.228 22.49C70.888 22.83 70.458 23 69.938 23C69.438 23 69.018 22.83 68.678 22.49C68.338 22.13 68.168 21.69 68.168 21.17V2.63C68.168 2.11 68.338 1.68 68.678 1.34C69.038 0.979999 69.478 0.8 69.998 0.8C70.498 0.8 70.918 0.979999 71.258 1.34C71.598 1.68 71.768 2.11 71.768 2.63V21.17ZM88.9439 6.65C89.4639 6.65 89.8939 6.82 90.2339 7.16C90.5739 7.5 90.7439 7.94 90.7439 8.48V21.17C90.7439 21.69 90.5739 22.13 90.2339 22.49C89.8939 22.83 89.4639 23 88.9439 23C88.4239 23 87.9939 22.83 87.6539 22.49C87.3339 22.15 87.1639 21.72 87.1439 21.2C86.6439 21.78 85.9639 22.28 85.1039 22.7C84.2639 23.1 83.3739 23.3 82.4339 23.3C81.0539 23.3 79.8039 22.95 78.6839 22.25C77.5639 21.53 76.6739 20.54 76.0139 19.28C75.3739 18.02 75.0539 16.59 75.0539 14.99C75.0539 13.39 75.3739 11.96 76.0139 10.7C76.6539 9.42 77.5239 8.43 78.6239 7.73C79.7439 7.01 80.9739 6.65 82.3139 6.65C83.2739 6.65 84.1739 6.83 85.0139 7.19C85.8539 7.53 86.5639 7.97 87.1439 8.51V8.48C87.1439 7.96 87.3139 7.53 87.6539 7.19C87.9939 6.83 88.4239 6.65 88.9439 6.65ZM82.8839 20C84.1839 20 85.2439 19.53 86.0639 18.59C86.8839 17.63 87.2939 16.43 87.2939 14.99C87.2939 13.55 86.8839 12.35 86.0639 11.39C85.2439 10.43 84.1839 9.95 82.8839 9.95C81.6039 9.95 80.5539 10.43 79.7339 11.39C78.9139 12.35 78.5039 13.55 78.5039 14.99C78.5039 16.43 78.9039 17.63 79.7039 18.59C80.5239 19.53 81.5839 20 82.8839 20ZM102.985 6.65C103.585 6.65 104.085 6.82 104.485 7.16C104.905 7.5 105.115 7.9 105.115 8.36C105.115 8.98 104.955 9.45 104.635 9.77C104.315 10.07 103.935 10.22 103.495 10.22C103.195 10.22 102.855 10.15 102.475 10.01C102.415 9.99 102.275 9.95 102.055 9.89C101.855 9.83 101.635 9.8 101.395 9.8C100.875 9.8 100.375 9.96 99.8953 10.28C99.4153 10.6 99.0153 11.09 98.6953 11.75C98.3953 12.39 98.2453 13.16 98.2453 14.06V21.17C98.2453 21.69 98.0753 22.13 97.7353 22.49C97.3953 22.83 96.9653 23 96.4453 23C95.9253 23 95.4953 22.83 95.1553 22.49C94.8153 22.13 94.6453 21.69 94.6453 21.17V8.78C94.6453 8.26 94.8153 7.83 95.1553 7.49C95.4953 7.13 95.9253 6.95 96.4453 6.95C96.9653 6.95 97.3953 7.13 97.7353 7.49C98.0753 7.83 98.2453 8.26 98.2453 8.78V9.17C98.7053 8.35 99.3653 7.73 100.225 7.31C101.085 6.87 102.005 6.65 102.985 6.65ZM111.553 21.17C111.553 21.69 111.373 22.13 111.013 22.49C110.673 22.83 110.243 23 109.723 23C109.223 23 108.803 22.83 108.463 22.49C108.123 22.13 107.953 21.69 107.953 21.17V2.63C107.953 2.11 108.123 1.68 108.463 1.34C108.823 0.979999 109.263 0.8 109.783 0.8C110.283 0.8 110.703 0.979999 111.043 1.34C111.383 1.68 111.553 2.11 111.553 2.63V21.17ZM127.21 6.95C127.73 6.95 128.16 7.13 128.5 7.49C128.84 7.83 129.01 8.26 129.01 8.78V21.53C129.01 24.13 128.31 26.02 126.91 27.2C125.51 28.4 123.64 29 121.3 29C120.62 29 119.92 28.94 119.2 28.82C118.5 28.72 117.93 28.58 117.49 28.4C116.51 27.98 116.02 27.4 116.02 26.66C116.02 26.52 116.05 26.36 116.11 26.18C116.23 25.74 116.43 25.4 116.71 25.16C117.01 24.94 117.33 24.83 117.67 24.83C117.87 24.83 118.06 24.86 118.24 24.92C118.38 24.98 118.62 25.08 118.96 25.22C119.32 25.36 119.69 25.47 120.07 25.55C120.47 25.65 120.88 25.7 121.3 25.7C122.72 25.7 123.76 25.39 124.42 24.77C125.1 24.17 125.44 23.13 125.44 21.65V21.35C124.4 22.65 122.78 23.3 120.58 23.3C119.54 23.3 118.62 23.06 117.82 22.58C117.02 22.08 116.4 21.4 115.96 20.54C115.52 19.66 115.3 18.66 115.3 17.54V8.78C115.3 8.26 115.47 7.83 115.81 7.49C116.15 7.13 116.58 6.95 117.1 6.95C117.62 6.95 118.05 7.13 118.39 7.49C118.73 7.83 118.9 8.26 118.9 8.78V16.46C118.9 17.72 119.17 18.63 119.71 19.19C120.27 19.73 121.08 20 122.14 20C123.18 20 123.98 19.7 124.54 19.1C125.12 18.48 125.41 17.6 125.41 16.46V8.78C125.41 8.26 125.58 7.83 125.92 7.49C126.26 7.13 126.69 6.95 127.21 6.95ZM159.795 6.95C160.275 6.95 160.675 7.13 160.995 7.49C161.335 7.83 161.505 8.27 161.505 8.81C161.505 8.99 161.465 9.22 161.385 9.5L156.795 21.86C156.675 22.22 156.455 22.51 156.135 22.73C155.835 22.93 155.505 23.03 155.145 23.03L154.905 23C154.225 22.96 153.715 22.58 153.375 21.86L150.825 14.48L148.395 21.86C148.055 22.58 147.545 22.96 146.865 23L146.625 23.03C146.265 23.03 145.925 22.93 145.605 22.73C145.305 22.51 145.095 22.22 144.975 21.86L140.385 9.5C140.305 9.28 140.265 9.05 140.265 8.81C140.265 8.31 140.425 7.88 140.745 7.52C141.085 7.14 141.525 6.95 142.065 6.95C142.465 6.95 142.805 7.05 143.085 7.25C143.385 7.43 143.595 7.71 143.715 8.09L146.955 16.88L149.325 10.46C149.645 9.72 150.195 9.35 150.975 9.35C151.395 9.35 151.715 9.44 151.935 9.62C152.175 9.8 152.375 10.08 152.535 10.46L154.845 16.73L158.055 8.09C158.175 7.71 158.385 7.43 158.685 7.25C158.985 7.05 159.355 6.95 159.795 6.95ZM172.683 6.65C173.283 6.65 173.783 6.82 174.183 7.16C174.603 7.5 174.813 7.9 174.813 8.36C174.813 8.98 174.653 9.45 174.333 9.77C174.013 10.07 173.633 10.22 173.193 10.22C172.893 10.22 172.553 10.15 172.173 10.01C172.113 9.99 171.973 9.95 171.753 9.89C171.553 9.83 171.333 9.8 171.093 9.8C170.573 9.8 170.073 9.96 169.593 10.28C169.113 10.6 168.713 11.09 168.393 11.75C168.093 12.39 167.943 13.16 167.943 14.06V21.17C167.943 21.69 167.773 22.13 167.433 22.49C167.093 22.83 166.663 23 166.143 23C165.623 23 165.193 22.83 164.853 22.49C164.513 22.13 164.343 21.69 164.343 21.17V8.78C164.343 8.26 164.513 7.83 164.853 7.49C165.193 7.13 165.623 6.95 166.143 6.95C166.663 6.95 167.093 7.13 167.433 7.49C167.773 7.83 167.943 8.26 167.943 8.78V9.17C168.403 8.35 169.063 7.73 169.923 7.31C170.783 6.87 171.703 6.65 172.683 6.65ZM180.74 21.17C180.74 21.69 180.57 22.13 180.23 22.49C179.89 22.83 179.46 23 178.94 23C178.42 23 177.99 22.83 177.65 22.49C177.31 22.13 177.14 21.69 177.14 21.17V8.78C177.14 8.26 177.31 7.83 177.65 7.49C177.99 7.13 178.42 6.95 178.94 6.95C179.46 6.95 179.89 7.13 180.23 7.49C180.57 7.83 180.74 8.26 180.74 8.78V21.17ZM178.91 5C178.23 5 177.75 4.89 177.47 4.67C177.19 4.45 177.05 4.06 177.05 3.5V2.93C177.05 2.37 177.2 1.98 177.5 1.76C177.8 1.54 178.28 1.43 178.94 1.43C179.64 1.43 180.13 1.54 180.41 1.76C180.69 1.98 180.83 2.37 180.83 2.93V3.5C180.83 4.08 180.68 4.48 180.38 4.7C180.1 4.9 179.61 5 178.91 5ZM192.18 19.61C192.46 19.61 192.71 19.75 192.93 20.03C193.17 20.29 193.29 20.64 193.29 21.08C193.29 21.62 192.99 22.08 192.39 22.46C191.81 22.82 191.15 23 190.41 23C189.17 23 188.12 22.74 187.26 22.22C186.42 21.68 186 20.55 186 18.83V10.55H184.62C184.14 10.55 183.74 10.39 183.42 10.07C183.1 9.75 182.94 9.35 182.94 8.87C182.94 8.41 183.1 8.03 183.42 7.73C183.74 7.41 184.14 7.25 184.62 7.25H186V5.33C186 4.81 186.17 4.38 186.51 4.04C186.87 3.68 187.31 3.5 187.83 3.5C188.33 3.5 188.75 3.68 189.09 4.04C189.43 4.38 189.6 4.81 189.6 5.33V7.25H191.73C192.21 7.25 192.61 7.41 192.93 7.73C193.25 8.05 193.41 8.45 193.41 8.93C193.41 9.39 193.25 9.78 192.93 10.1C192.61 10.4 192.21 10.55 191.73 10.55H189.6V18.68C189.6 19.1 189.71 19.41 189.93 19.61C190.15 19.79 190.45 19.88 190.83 19.88C190.99 19.88 191.21 19.84 191.49 19.76C191.73 19.66 191.96 19.61 192.18 19.61ZM210.969 14.6C210.949 15.08 210.759 15.47 210.399 15.77C210.039 16.07 209.619 16.22 209.139 16.22H199.239C199.479 17.4 200.029 18.33 200.889 19.01C201.749 19.67 202.719 20 203.799 20C204.619 20 205.259 19.93 205.719 19.79C206.179 19.63 206.539 19.47 206.799 19.31C207.079 19.13 207.269 19.01 207.369 18.95C207.729 18.77 208.069 18.68 208.389 18.68C208.809 18.68 209.169 18.83 209.469 19.13C209.769 19.43 209.919 19.78 209.919 20.18C209.919 20.72 209.639 21.21 209.079 21.65C208.519 22.11 207.769 22.5 206.829 22.82C205.889 23.14 204.939 23.3 203.979 23.3C202.299 23.3 200.829 22.95 199.569 22.25C198.329 21.55 197.369 20.59 196.689 19.37C196.009 18.13 195.669 16.74 195.669 15.2C195.669 13.48 196.029 11.97 196.749 10.67C197.469 9.37 198.419 8.38 199.599 7.7C200.779 7 202.039 6.65 203.379 6.65C204.699 6.65 205.939 7.01 207.099 7.73C208.279 8.45 209.219 9.42 209.919 10.64C210.619 11.86 210.969 13.18 210.969 14.6ZM203.379 9.95C201.059 9.95 199.689 11.04 199.269 13.22H207.129V13.01C207.049 12.17 206.639 11.45 205.899 10.85C205.159 10.25 204.319 9.95 203.379 9.95ZM222.311 6.65C222.911 6.65 223.411 6.82 223.811 7.16C224.231 7.5 224.441 7.9 224.441 8.36C224.441 8.98 224.281 9.45 223.961 9.77C223.641 10.07 223.261 10.22 222.821 10.22C222.521 10.22 222.181 10.15 221.801 10.01C221.741 9.99 221.601 9.95 221.381 9.89C221.181 9.83 220.961 9.8 220.721 9.8C220.201 9.8 219.701 9.96 219.221 10.28C218.741 10.6 218.341 11.09 218.021 11.75C217.721 12.39 217.571 13.16 217.571 14.06V21.17C217.571 21.69 217.401 22.13 217.061 22.49C216.721 22.83 216.291 23 215.771 23C215.251 23 214.821 22.83 214.481 22.49C214.141 22.13 213.971 21.69 213.971 21.17V8.78C213.971 8.26 214.141 7.83 214.481 7.49C214.821 7.13 215.251 6.95 215.771 6.95C216.291 6.95 216.721 7.13 217.061 7.49C217.401 7.83 217.571 8.26 217.571 8.78V9.17C218.031 8.35 218.691 7.73 219.551 7.31C220.411 6.87 221.331 6.65 222.311 6.65Z" fill="#2D9CDB"/>
</svg>
