<svg width="32" height="32" viewBox="0 0 32 32" fill="none" xmlns="http://www.w3.org/2000/svg">
<path d="M15.9999 30.7606C24.152 30.7606 30.7605 24.1521 30.7605 16C30.7605 7.84794 24.152 1.23938 15.9999 1.23938C7.84782 1.23938 1.23926 7.84794 1.23926 16C1.23926 24.1521 7.84782 30.7606 15.9999 30.7606Z" fill="#14DE89"/>
<path d="M16 32C7.17831 32 0 24.8229 0 16C0 7.17831 7.17831 0 16 0C24.8229 0 32 7.17831 32 16C32 24.8229 24.8229 32 16 32ZM16 2.47869C8.54406 2.47869 2.47869 8.54406 2.47869 16C2.47869 23.4559 8.54406 29.5213 16 29.5213C23.4559 29.5213 29.5213 23.4547 29.5213 16C29.5213 8.54406 23.4559 2.47869 16 2.47869Z" fill="#14DE89"/>
<path d="M14.0666 21.887C13.7345 21.887 13.4172 21.7544 13.1829 21.5165L8.60973 16.8689C8.13011 16.3806 8.1363 15.5973 8.62461 15.1165C9.11292 14.6381 9.89742 14.643 10.377 15.1313L14.0307 18.8444L21.5895 10.5197C22.0517 10.0128 22.835 9.97689 23.3394 10.4355C23.8463 10.8953 23.8835 11.6785 23.4237 12.1866L14.9837 21.4817C14.7545 21.7345 14.4322 21.8808 14.0914 21.8882C14.0827 21.887 14.0753 21.887 14.0666 21.887Z" fill="white"/>
</svg>
