<svg width="32" height="32" viewBox="0 0 32 32" fill="none" xmlns="http://www.w3.org/2000/svg">
<g clip-path="url(#clip0)">
<path d="M15.9996 30.767C24.1556 30.767 30.7673 24.1553 30.7673 15.9994C30.7673 7.8434 24.1556 1.23169 15.9996 1.23169C7.84364 1.23169 1.23193 7.8434 1.23193 15.9994C1.23193 24.1553 7.84364 30.767 15.9996 30.767Z" fill="#FFCF24"/>
<path d="M16 31.9986C11.9007 31.9986 7.80144 30.4388 4.68051 27.319C-1.56017 21.0784 -1.56017 10.922 4.68051 4.68004C10.9212 -1.55939 21.0788 -1.56064 27.3195 4.68004C33.5602 10.922 33.5602 21.0771 27.3195 27.319C24.1985 30.4388 20.098 31.9986 16 31.9986ZM6.43379 6.43333C1.16032 11.7081 1.16032 20.291 6.43379 25.5658C11.7098 30.8392 20.2927 30.8405 25.5662 25.5658C30.8398 20.291 30.8397 11.7081 25.5662 6.43333C20.2902 1.15985 11.7085 1.15985 6.43379 6.43333Z" fill="#FFCF24"/>
<path d="M16.333 18.664C15.5972 18.664 15 18.0681 15 17.331V9.333C15 8.59719 15.5972 8 16.333 8C17.0688 8 17.666 8.59719 17.666 9.333V17.331C17.666 18.0681 17.0688 18.664 16.333 18.664Z" fill="white"/>
<path d="M16.333 24.116C15.9731 24.116 15.6398 23.9814 15.3866 23.7295C15.1333 23.4762 15 23.143 15 22.783C15 22.6097 15.04 22.4365 15.1066 22.2764C15.1733 22.1165 15.2666 21.9699 15.3866 21.8366C15.4532 21.7833 15.5199 21.7166 15.5865 21.6766C15.6665 21.6233 15.7464 21.5833 15.8264 21.5566C15.9064 21.5166 15.9864 21.49 16.0797 21.4753C16.5063 21.3833 16.9728 21.5286 17.2794 21.8366C17.3994 21.9699 17.4926 22.1165 17.5593 22.2764C17.626 22.4364 17.666 22.6097 17.666 22.783C17.666 23.143 17.5326 23.4762 17.2794 23.7295C17.1461 23.8495 16.9995 23.9427 16.8395 24.0094C16.6796 24.076 16.5063 24.116 16.333 24.116Z" fill="white"/>
</g>
<defs>
<clipPath id="clip0">
<rect width="32" height="32" fill="white"/>
</clipPath>
</defs>
</svg>
